<?xml version="1.0" encoding="UTF-8"?>
<svg xmlns="http://www.w3.org/2000/svg" xmlns:xlink="http://www.w3.org/1999/xlink" width="107.799pt" height="79.28pt" viewBox="0 0 107.799 79.28">
<defs>
<g>
<g id="glyph-0-0">
<path d="M 0.546875 -1.203125 C 0.5 -0.96875 0.46875 -0.734375 0.421875 -0.5 L 0.421875 -0.46875 C 0.421875 -0.328125 1.078125 -0.0625 1.40625 0.03125 C 1.75 0.125 2.109375 0.1875 2.46875 0.1875 C 3.25 0.1875 4.015625 -0.140625 4.40625 -0.96875 C 4.5 -1.203125 4.5625 -1.453125 4.5625 -1.71875 C 4.5625 -2.59375 3.890625 -3.3125 3.078125 -3.53125 C 2.84375 -3.578125 2.609375 -3.640625 2.375 -3.703125 C 1.890625 -3.8125 1.265625 -4.03125 1.265625 -4.765625 C 1.265625 -5.421875 2.03125 -5.75 2.5625 -5.75 C 3.0625 -5.75 3.5 -5.609375 3.921875 -5.3125 C 3.984375 -5.265625 4.046875 -5.203125 4.109375 -5.171875 C 4.140625 -5.359375 4.171875 -5.53125 4.21875 -5.71875 L 4.234375 -5.890625 C 4.234375 -6.015625 3.609375 -6.234375 3.28125 -6.3125 C 3.0625 -6.359375 2.84375 -6.375 2.625 -6.375 C 1.78125 -6.375 0.921875 -6.03125 0.578125 -5.078125 C 0.53125 -4.921875 0.5 -4.765625 0.5 -4.59375 C 0.5 -3.734375 1.203125 -3.125 1.96875 -2.921875 C 2.65625 -2.734375 3.5625 -2.71875 3.78125 -1.8125 C 3.796875 -1.75 3.8125 -1.671875 3.8125 -1.609375 L 3.8125 -1.53125 C 3.75 -0.890625 3.140625 -0.46875 2.53125 -0.46875 C 1.90625 -0.46875 1.265625 -0.671875 0.78125 -1.03125 C 0.6875 -1.078125 0.625 -1.15625 0.546875 -1.203125 Z M 0.546875 -1.203125 "/>
</g>
<g id="glyph-0-1">
<path d="M 3.75 -0.96875 C 3.21875 -0.6875 2.875 -0.515625 2.28125 -0.515625 L 2.203125 -0.515625 C 1.421875 -0.578125 1.0625 -1.328125 1.0625 -1.984375 C 1.0625 -2.734375 1.46875 -3.5 2.3125 -3.5 C 2.734375 -3.5 3.09375 -3.421875 3.46875 -3.203125 C 3.53125 -3.171875 3.578125 -3.125 3.640625 -3.09375 C 3.671875 -3.28125 3.75 -3.5 3.75 -3.65625 C 3.75 -4.015625 2.40625 -4.109375 2.3125 -4.109375 C 1.1875 -4.109375 0.3125 -3.125 0.3125 -2.046875 C 0.3125 -0.921875 1.078125 0.09375 2.328125 0.09375 C 2.8125 0.09375 3.25 -0.046875 3.65625 -0.265625 C 3.71875 -0.296875 3.796875 -0.3125 3.796875 -0.40625 C 3.796875 -0.59375 3.75 -0.78125 3.75 -0.96875 Z M 3.75 -0.96875 "/>
</g>
<g id="glyph-0-2">
<path d="M 0.75 -3.078125 C 0.890625 -3.15625 1.015625 -3.25 1.140625 -3.328125 C 1.453125 -3.484375 1.8125 -3.546875 2.171875 -3.546875 C 2.75 -3.546875 2.921875 -2.921875 2.921875 -2.46875 L 2.921875 -2.203125 C 1.984375 -2.203125 0.390625 -2 0.390625 -1.03125 C 0.390625 -0.46875 0.796875 0.09375 1.4375 0.09375 C 1.9375 0.09375 2.53125 -0.015625 2.9375 -0.34375 L 2.9375 -0.015625 L 3.65625 -0.015625 L 3.65625 -2.125 C 3.65625 -2.265625 3.671875 -2.390625 3.671875 -2.53125 C 3.671875 -3.328125 3.109375 -4.109375 2.15625 -4.109375 C 1.71875 -4.109375 1.28125 -4.015625 0.875 -3.8125 C 0.796875 -3.78125 0.703125 -3.75 0.703125 -3.640625 C 0.703125 -3.453125 0.75 -3.265625 0.75 -3.078125 Z M 2.921875 -1.71875 L 2.921875 -1.296875 C 2.921875 -0.75 2.5 -0.484375 1.90625 -0.484375 C 1.59375 -0.484375 1.078125 -0.625 1.078125 -1.0625 C 1.109375 -1.5 1.828125 -1.609375 2.140625 -1.65625 C 2.390625 -1.6875 2.65625 -1.71875 2.921875 -1.71875 Z M 2.921875 -1.71875 "/>
</g>
<g id="glyph-0-3">
<path d="M 1.421875 -3.390625 L 1.421875 -4.015625 L 0.71875 -4.015625 L 0.71875 -0.015625 L 1.46875 -0.015625 L 1.46875 -2.03125 C 1.46875 -2.5625 1.5625 -3.46875 2.359375 -3.46875 C 2.953125 -3.46875 3.25 -3.140625 3.25 -2.546875 C 3.25 -2.4375 3.25 -2.328125 3.25 -2.21875 L 3.25 -0.015625 L 3.984375 -0.015625 L 3.984375 -2.546875 C 3.984375 -2.875 3.96875 -3.1875 3.828125 -3.484375 C 3.640625 -3.890625 3.203125 -4.0625 2.765625 -4.0625 C 2.265625 -4.0625 1.671875 -3.8125 1.421875 -3.390625 Z M 1.421875 -3.390625 "/>
</g>
<g id="glyph-0-4">
<path d="M 3.703125 -0.953125 C 3.5625 -0.875 3.421875 -0.78125 3.265625 -0.71875 C 3 -0.578125 2.671875 -0.484375 2.359375 -0.484375 C 1.65625 -0.484375 0.96875 -1.078125 0.96875 -1.953125 L 3.796875 -1.953125 C 3.796875 -2.859375 3.5 -4.109375 2.171875 -4.109375 C 1.03125 -4.109375 0.296875 -3.046875 0.296875 -1.96875 L 0.296875 -1.9375 C 0.3125 -0.859375 1.203125 0.09375 2.3125 0.09375 C 2.78125 0.09375 3.234375 -0.046875 3.625 -0.265625 C 3.6875 -0.3125 3.75 -0.328125 3.75 -0.421875 C 3.75 -0.59375 3.703125 -0.78125 3.703125 -0.953125 Z M 1.015625 -2.484375 C 1.1875 -3 1.53125 -3.53125 2.15625 -3.53125 C 2.78125 -3.53125 3.140625 -3.0625 3.25 -2.484375 Z M 1.015625 -2.484375 "/>
</g>
<g id="glyph-0-5">
<path d="M 3.265625 -6.453125 L 3.265625 -3.578125 C 2.875 -3.890625 2.390625 -4.046875 1.90625 -4.046875 C 0.828125 -4.046875 0.3125 -2.875 0.3125 -1.96875 C 0.3125 -1.03125 0.859375 0.09375 1.890625 0.09375 C 2.40625 0.09375 2.859375 -0.15625 3.234375 -0.46875 L 3.234375 -0.015625 L 3.984375 -0.015625 L 3.984375 -6.453125 Z M 1.0625 -1.84375 C 1.0625 -1.890625 1.046875 -1.9375 1.046875 -1.984375 C 1.046875 -2.71875 1.5 -3.46875 2.359375 -3.46875 C 2.6875 -3.46875 3.1875 -3.265625 3.234375 -2.96875 C 3.25 -2.921875 3.25 -2.859375 3.25 -2.8125 C 3.25 -2.703125 3.234375 -2.59375 3.234375 -2.5 L 3.234375 -1.1875 C 3.234375 -0.953125 2.890625 -0.65625 2.640625 -0.5625 C 2.53125 -0.515625 2.390625 -0.484375 2.265625 -0.484375 C 1.5 -0.484375 1.125 -1.171875 1.0625 -1.84375 Z M 1.0625 -1.84375 "/>
</g>
<g id="glyph-0-6">
<path d="M 0.859375 -6.171875 L 0.859375 -0.015625 L 1.71875 -0.015625 L 1.71875 -2.546875 L 3.296875 -2.546875 C 4.28125 -2.609375 5.328125 -3.28125 5.328125 -4.359375 L 5.328125 -4.46875 C 5.265625 -5.59375 4.078125 -6.1875 3.078125 -6.1875 C 2.921875 -6.1875 2.765625 -6.171875 2.609375 -6.171875 Z M 1.6875 -3.09375 L 1.6875 -5.65625 L 3.0625 -5.65625 C 3.75 -5.65625 4.546875 -5.21875 4.546875 -4.375 C 4.546875 -3.875 4.234375 -3.421875 3.765625 -3.25 C 3.40625 -3.09375 3.046875 -3.09375 2.6875 -3.09375 Z M 1.6875 -3.09375 "/>
</g>
<g id="glyph-0-7">
<path d="M 0.859375 -6.171875 L 0.859375 -0.015625 L 2.6875 -0.015625 C 2.859375 -0.015625 3.015625 0 3.1875 0 C 4.75 0 6.09375 -1.25 6.09375 -3.046875 C 6.09375 -4.625 5 -6.1875 3.15625 -6.1875 C 2.984375 -6.1875 2.796875 -6.171875 2.625 -6.171875 Z M 1.6875 -0.53125 L 1.6875 -5.65625 L 2.9375 -5.65625 C 4.234375 -5.65625 5.265625 -4.71875 5.265625 -3.0625 C 5.265625 -1.8125 4.5625 -0.53125 2.984375 -0.53125 Z M 1.6875 -0.53125 "/>
</g>
<g id="glyph-0-8">
<path d="M 0.84375 -6.15625 L 0.84375 -0.015625 L 1.703125 -0.015625 L 1.703125 -2.796875 L 4.46875 -2.796875 L 4.46875 -3.375 L 1.703125 -3.375 L 1.703125 -5.546875 L 3.84375 -5.546875 L 4.015625 -5.53125 L 4.84375 -5.53125 L 4.84375 -6.15625 Z M 0.84375 -6.15625 "/>
</g>
<g id="glyph-0-9">
<path d="M 0.328125 -6.125 L 0.328125 -5.5 L 2.34375 -5.5 L 2.6875 -5.515625 L 2.6875 -0.015625 L 3.546875 -0.015625 L 3.546875 -5.515625 L 5.90625 -5.515625 L 5.90625 -6.125 Z M 0.328125 -6.125 "/>
</g>
<g id="glyph-0-10">
<path d="M 1.40625 -3.203125 L 1.40625 -4.015625 L 0.734375 -4.015625 L 0.734375 -0.015625 L 1.453125 -0.015625 L 1.453125 -1.78125 C 1.453125 -2.671875 2 -3.40625 2.984375 -3.40625 L 2.984375 -4.046875 C 2.390625 -4.046875 1.65625 -3.71875 1.40625 -3.203125 Z M 1.40625 -3.203125 "/>
</g>
<g id="glyph-0-11">
<path d="M 0.71875 -3.953125 L 0.71875 -1.046875 C 0.71875 -0.765625 0.71875 -0.4375 0.921875 -0.203125 C 1.09375 0.03125 1.375 0.09375 1.65625 0.09375 C 2.21875 0.09375 2.875 -0.0625 3.265625 -0.421875 L 3.265625 -0.015625 L 3.984375 -0.015625 L 3.984375 -3.953125 L 3.25 -3.953125 L 3.25 -1.46875 C 3.25 -1.28125 3.25 -1.109375 3.15625 -0.9375 C 2.953125 -0.59375 2.5625 -0.4375 2.171875 -0.4375 C 1.84375 -0.4375 1.46875 -0.453125 1.46875 -1 L 1.46875 -3.953125 Z M 0.71875 -3.953125 "/>
</g>
<g id="glyph-0-12">
<path d="M 0.359375 -0.953125 C 0.328125 -0.796875 0.3125 -0.640625 0.28125 -0.484375 C 0.28125 -0.453125 0.265625 -0.40625 0.265625 -0.359375 C 0.265625 -0.140625 1.171875 0.03125 1.3125 0.046875 C 1.484375 0.09375 1.65625 0.09375 1.828125 0.09375 C 2.5 0.09375 3.296875 -0.171875 3.296875 -1.171875 L 3.296875 -1.234375 C 3.25 -1.78125 2.796875 -2.203125 2.28125 -2.359375 C 1.859375 -2.484375 0.984375 -2.421875 0.984375 -3.03125 C 0.984375 -3.40625 1.375 -3.546875 1.6875 -3.546875 C 1.984375 -3.546875 2.296875 -3.515625 2.59375 -3.40625 C 2.734375 -3.359375 2.875 -3.265625 3.03125 -3.203125 L 3.140625 -3.828125 C 2.703125 -4.015625 2.28125 -4.109375 1.796875 -4.109375 C 1.109375 -4.109375 0.296875 -3.828125 0.296875 -2.9375 C 0.296875 -2.375 0.75 -1.96875 1.265625 -1.8125 C 1.640625 -1.703125 2.609375 -1.703125 2.609375 -1.078125 C 2.609375 -0.6875 2.203125 -0.5 1.84375 -0.5 C 1.296875 -0.5 0.875 -0.65625 0.359375 -0.953125 Z M 0.359375 -0.953125 "/>
</g>
<g id="glyph-0-13">
<path d="M 0.953125 -5.078125 L 0.953125 -3.953125 L 0.171875 -3.953125 L 0.171875 -3.40625 L 0.921875 -3.40625 L 0.921875 -1.828125 C 0.921875 -1.65625 0.921875 -1.484375 0.921875 -1.3125 C 0.921875 -0.921875 0.921875 0.09375 1.65625 0.09375 C 2.15625 0.09375 2.59375 -0.046875 3.046875 -0.234375 L 2.890625 -0.796875 C 2.640625 -0.640625 2.390625 -0.515625 2.078125 -0.515625 C 1.6875 -0.515625 1.625 -0.953125 1.625 -1.296875 L 1.625 -3.40625 L 2.890625 -3.40625 L 2.890625 -3.953125 L 1.625 -3.953125 L 1.625 -5.078125 Z M 0.953125 -5.078125 "/>
</g>
<g id="glyph-0-14">
<path d="M 0.046875 -3.953125 L 1.765625 -2.046875 L 0 -0.015625 L 0.765625 -0.015625 L 2.078125 -1.671875 L 3.4375 -0.015625 L 4.203125 -0.015625 L 2.375 -2.03125 L 4.046875 -3.953125 L 3.296875 -3.953125 L 2.078125 -2.5 L 0.828125 -3.953125 Z M 0.046875 -3.953125 "/>
</g>
</g>
<clipPath id="clip-0">
<path clip-rule="nonzero" d="M 0.386719 0 L 107.214844 0 L 107.214844 39 L 0.386719 39 Z M 0.386719 0 "/>
</clipPath>
<clipPath id="clip-1">
<path clip-rule="nonzero" d="M 0.386719 39 L 107.214844 39 L 107.214844 78.566406 L 0.386719 78.566406 Z M 0.386719 39 "/>
</clipPath>
</defs>
<g clip-path="url(#clip-0)">
<path fill="none" stroke-width="0.79701" stroke-linecap="butt" stroke-linejoin="miter" stroke="rgb(0%, 0%, 0%)" stroke-opacity="1" stroke-miterlimit="10" d="M 49.516341 12.754373 L -49.515571 12.754373 C -50.615313 12.754373 -51.510085 11.863543 -51.510085 10.763801 L -51.510085 -10.761962 C -51.510085 -11.865645 -50.615313 -12.756475 -49.515571 -12.756475 L 49.516341 -12.756475 C 50.616082 -12.756475 51.510854 -11.865645 51.510854 -10.761962 L 51.510854 10.763801 C 51.510854 11.863543 50.616082 12.754373 49.516341 12.754373 Z M 49.516341 12.754373 " transform="matrix(0.991, 0, 0, -0.991, 53.8004, 15.010677)"/>
</g>
<g fill="rgb(0%, 0%, 0%)" fill-opacity="1">
<use xlink:href="#glyph-0-0" x="27.581513" y="18.232418"/>
<use xlink:href="#glyph-0-1" x="32.653472" y="18.232418"/>
<use xlink:href="#glyph-0-2" x="36.711572" y="18.232418"/>
<use xlink:href="#glyph-0-3" x="41.098443" y="18.232418"/>
<use xlink:href="#glyph-0-3" x="45.814086" y="18.232418"/>
<use xlink:href="#glyph-0-4" x="50.529728" y="18.232418"/>
<use xlink:href="#glyph-0-5" x="54.587828" y="18.232418"/>
</g>
<g fill="rgb(0%, 0%, 0%)" fill-opacity="1">
<use xlink:href="#glyph-0-6" x="62.351266" y="18.232418"/>
<use xlink:href="#glyph-0-7" x="68.19095" y="18.232418"/>
<use xlink:href="#glyph-0-8" x="74.792138" y="18.232418"/>
</g>
<g clip-path="url(#clip-1)">
<path fill="none" stroke-width="0.79701" stroke-linecap="butt" stroke-linejoin="miter" stroke="rgb(0%, 0%, 0%)" stroke-opacity="1" stroke-miterlimit="10" d="M 49.516341 -36.229451 L -49.515571 -36.229451 C -50.615313 -36.229451 -51.510085 -37.124222 -51.510085 -38.223964 L -51.510085 -59.749727 C -51.510085 -60.849468 -50.615313 -61.74424 -49.515571 -61.74424 L 49.516341 -61.74424 C 50.616082 -61.74424 51.510854 -60.849468 51.510854 -59.749727 L 51.510854 -38.223964 C 51.510854 -37.124222 50.616082 -36.229451 49.516341 -36.229451 Z M 49.516341 -36.229451 " transform="matrix(0.991, 0, 0, -0.991, 53.8004, 15.010677)"/>
</g>
<g fill="rgb(0%, 0%, 0%)" fill-opacity="1">
<use xlink:href="#glyph-0-9" x="29.316754" y="66.777544"/>
</g>
<g fill="rgb(0%, 0%, 0%)" fill-opacity="1">
<use xlink:href="#glyph-0-10" x="34.790347" y="66.777544"/>
<use xlink:href="#glyph-0-11" x="37.909228" y="66.777544"/>
<use xlink:href="#glyph-0-12" x="42.62487" y="66.777544"/>
<use xlink:href="#glyph-0-13" x="46.124949" y="66.777544"/>
<use xlink:href="#glyph-0-4" x="49.422433" y="66.777544"/>
<use xlink:href="#glyph-0-5" x="53.480533" y="66.777544"/>
</g>
<g fill="rgb(0%, 0%, 0%)" fill-opacity="1">
<use xlink:href="#glyph-0-9" x="61.243971" y="66.777544"/>
</g>
<g fill="rgb(0%, 0%, 0%)" fill-opacity="1">
<use xlink:href="#glyph-0-4" x="66.717564" y="66.777544"/>
<use xlink:href="#glyph-0-14" x="70.775664" y="66.777544"/>
<use xlink:href="#glyph-0-13" x="74.983933" y="66.777544"/>
</g>
<path fill="none" stroke-width="0.79701" stroke-linecap="butt" stroke-linejoin="miter" stroke="rgb(0%, 0%, 0%)" stroke-opacity="1" stroke-miterlimit="10" d="M 0.000384712 -13.154589 L 0.000384712 -31.948737 " transform="matrix(0.991, 0, 0, -0.991, 53.8004, 15.010677)"/>
<path fill-rule="nonzero" fill="rgb(0%, 0%, 0%)" fill-opacity="1" stroke-width="0.79701" stroke-linecap="butt" stroke-linejoin="miter" stroke="rgb(0%, 0%, 0%)" stroke-opacity="1" stroke-miterlimit="10" d="M 5.100399 0.000384712 L 1.288751 1.443056 L 2.554045 0.000384712 L 1.288751 -1.442287 Z M 5.100399 0.000384712 " transform="matrix(0, 0.991, 0.991, 0, 53.8004, 44.340036)"/>
</svg>
