<?xml version="1.0" encoding="UTF-8"?>
<svg xmlns="http://www.w3.org/2000/svg" xmlns:xlink="http://www.w3.org/1999/xlink" width="153.155pt" height="128.266pt" viewBox="0 0 153.155 128.266">
<defs>
<g>
<g id="glyph-0-0">
<path d="M 2.75 -6.03125 L 2.5625 -6.03125 C 1.96875 -5.453125 1.109375 -5.453125 0.796875 -5.453125 L 0.796875 -4.890625 C 1.046875 -4.890625 1.5 -4.890625 2 -5.109375 L 2 -0.546875 L 0.859375 -0.546875 L 0.859375 0 L 3.90625 0 L 3.90625 -0.546875 L 2.75 -0.546875 Z M 2.75 -6.03125 "/>
</g>
<g id="glyph-0-1">
<path d="M 8.53125 -6.1875 L 7.84375 -6.1875 L 7 -3.296875 C 6.8125 -2.71875 6.375 -1.203125 6.3125 -0.6875 C 6.3125 -0.6875 6.265625 -0.96875 5.984375 -2 L 5.5625 -3.4375 L 4.75 -6.1875 L 4 -6.1875 L 3.234375 -3.640625 C 3.0625 -3.046875 2.53125 -1.265625 2.484375 -0.703125 L 2.46875 -0.703125 C 2.40625 -1.265625 1.921875 -2.90625 1.71875 -3.625 L 0.953125 -6.1875 L 0.125 -6.1875 L 2 0 L 2.75 0 L 3.65625 -3.0625 L 4.046875 -4.421875 C 4.25 -5.1875 4.296875 -5.453125 4.296875 -5.5 L 4.3125 -5.5 C 4.359375 -5 4.859375 -3.359375 5.046875 -2.734375 L 5.859375 0 L 6.671875 0 Z M 8.53125 -6.1875 "/>
</g>
<g id="glyph-0-2">
<path d="M 3.8125 -1.953125 C 3.8125 -2.234375 3.796875 -2.90625 3.453125 -3.4375 C 3.078125 -4 2.5 -4.109375 2.171875 -4.109375 C 1.140625 -4.109375 0.3125 -3.15625 0.3125 -2.015625 C 0.3125 -0.84375 1.1875 0.09375 2.296875 0.09375 C 2.734375 0.09375 3.25 -0.015625 3.765625 -0.34375 L 3.71875 -0.953125 C 3.15625 -0.546875 2.625 -0.484375 2.3125 -0.484375 C 1.5625 -0.484375 1 -1.140625 0.96875 -1.953125 Z M 1.03125 -2.484375 C 1.171875 -3.046875 1.609375 -3.53125 2.171875 -3.53125 C 2.5 -3.53125 3.109375 -3.375 3.28125 -2.484375 Z M 1.03125 -2.484375 "/>
</g>
<g id="glyph-0-3">
<path d="M 1.453125 -6.1875 L 0.734375 -6.1875 L 0.734375 0 L 1.453125 0 Z M 1.453125 -6.1875 "/>
</g>
<g id="glyph-0-4">
<path d="M 1.65625 -0.015625 L 1.65625 -0.765625 L 0.890625 -0.765625 L 0.890625 0 L 1.109375 0 L 0.875 1.140625 L 1.265625 1.140625 Z M 1.65625 -0.015625 "/>
</g>
<g id="glyph-0-5">
<path d="M 2.125 -5.171875 C 2.234375 -5.171875 2.34375 -5.171875 2.453125 -5.171875 L 3.546875 -5.171875 C 2.15625 -3.71875 1.390625 -1.921875 1.390625 0.09375 L 2.1875 0.09375 C 2.1875 -2.203125 3.171875 -4.09375 4.1875 -5.21875 L 4.1875 -5.828125 L 0.390625 -5.828125 L 0.390625 -5.171875 Z M 2.125 -5.171875 "/>
</g>
<g id="glyph-0-6">
<path d="M 3.796875 -5.859375 C 3.375 -6.015625 3.03125 -6.03125 2.828125 -6.03125 C 1.546875 -6.03125 0.390625 -4.78125 0.390625 -2.859375 C 0.390625 -0.421875 1.46875 0.203125 2.296875 0.203125 C 2.84375 0.203125 3.234375 0 3.59375 -0.40625 C 4.03125 -0.875 4.1875 -1.28125 4.1875 -1.984375 C 4.1875 -2.484375 4.125 -2.9375 3.8125 -3.421875 C 3.46875 -3.984375 3.15625 -4.125 2.734375 -4.125 C 2.390625 -4.125 1.734375 -4.03125 1.171875 -3.40625 C 1.28125 -4.59375 1.875 -5.484375 2.84375 -5.484375 C 3.015625 -5.484375 3.34375 -5.46875 3.796875 -5.296875 Z M 1.1875 -1.953125 C 1.1875 -2.078125 1.1875 -2.09375 1.203125 -2.1875 C 1.203125 -2.875 1.625 -3.546875 2.34375 -3.546875 C 2.6875 -3.546875 2.984375 -3.421875 3.21875 -3 C 3.40625 -2.6875 3.421875 -2.40625 3.421875 -1.984375 C 3.421875 -1.640625 3.421875 -1.28125 3.1875 -0.890625 C 3.015625 -0.625 2.765625 -0.390625 2.296875 -0.390625 C 1.34375 -0.390625 1.21875 -1.65625 1.1875 -1.953125 Z M 1.1875 -1.953125 "/>
</g>
<g id="glyph-0-7">
<path d="M 3.875 -2.90625 C 4.78125 -3.15625 5.421875 -3.796875 5.421875 -4.515625 C 5.421875 -5.4375 4.390625 -6.1875 3.109375 -6.1875 L 0.859375 -6.1875 L 0.859375 0 L 1.6875 0 L 1.6875 -2.8125 L 3.125 -2.8125 L 4.8125 0 L 5.671875 0 Z M 1.6875 -3.390625 L 1.6875 -5.671875 L 3 -5.671875 C 4.046875 -5.671875 4.640625 -5.171875 4.640625 -4.515625 C 4.640625 -3.9375 4.109375 -3.390625 3 -3.390625 Z M 1.6875 -3.390625 "/>
</g>
<g id="glyph-0-8">
<path d="M 1.484375 -0.40625 C 1.8125 -0.09375 2.25 0.09375 2.71875 0.09375 C 3.625 0.09375 4.40625 -0.78125 4.40625 -1.984375 C 4.40625 -3.0625 3.84375 -4.0625 2.984375 -4.0625 C 2.734375 -4.0625 2.0625 -4.015625 1.453125 -3.53125 L 1.453125 -3.96875 L 0.734375 -3.96875 L 0.734375 1.734375 L 1.484375 1.734375 Z M 1.484375 -2.96875 C 1.59375 -3.125 1.921875 -3.453125 2.4375 -3.453125 C 3.109375 -3.453125 3.671875 -2.8125 3.671875 -1.984375 C 3.671875 -1.125 3.046875 -0.484375 2.34375 -0.484375 C 2.0625 -0.484375 1.734375 -0.59375 1.484375 -1.03125 Z M 1.484375 -2.96875 "/>
</g>
<g id="glyph-0-9">
<path d="M 4.3125 -1.96875 C 4.3125 -3.125 3.421875 -4.109375 2.28125 -4.109375 C 1.171875 -4.109375 0.265625 -3.15625 0.265625 -1.96875 C 0.265625 -0.78125 1.203125 0.09375 2.28125 0.09375 C 3.390625 0.09375 4.3125 -0.796875 4.3125 -1.96875 Z M 2.296875 -0.515625 C 1.609375 -0.515625 1.015625 -1.046875 1.015625 -2.046875 C 1.015625 -3.09375 1.671875 -3.53125 2.28125 -3.53125 C 2.921875 -3.53125 3.5625 -3.078125 3.5625 -2.046875 C 3.5625 -1.015625 2.9375 -0.515625 2.296875 -0.515625 Z M 2.296875 -0.515625 "/>
</g>
<g id="glyph-0-10">
<path d="M 1.453125 -1.90625 C 1.453125 -2.84375 2.1875 -3.40625 3 -3.421875 L 3 -4.0625 C 2.359375 -4.046875 1.765625 -3.734375 1.40625 -3.203125 L 1.40625 -4.015625 L 0.734375 -4.015625 L 0.734375 0 L 1.453125 0 Z M 1.453125 -1.90625 "/>
</g>
<g id="glyph-0-11">
<path d="M 1.609375 -3.40625 L 2.90625 -3.40625 L 2.90625 -3.96875 L 1.609375 -3.96875 L 1.609375 -5.09375 L 0.953125 -5.09375 L 0.953125 -3.96875 L 0.171875 -3.96875 L 0.171875 -3.40625 L 0.921875 -3.40625 L 0.921875 -1.125 C 0.921875 -0.59375 1.046875 0.09375 1.6875 0.09375 C 2.09375 0.09375 2.546875 0.015625 3.046875 -0.234375 L 2.90625 -0.796875 C 2.671875 -0.609375 2.359375 -0.515625 2.078125 -0.515625 C 1.734375 -0.515625 1.609375 -0.828125 1.609375 -1.28125 Z M 1.609375 -3.40625 "/>
</g>
<g id="glyph-0-12">
<path d="M 3.15625 -3.828125 C 2.59375 -4.078125 2.1875 -4.109375 1.8125 -4.109375 C 1.609375 -4.109375 0.296875 -4.109375 0.296875 -2.9375 C 0.296875 -2.5 0.5625 -2.234375 0.65625 -2.140625 C 1 -1.84375 1.234375 -1.796875 1.84375 -1.6875 C 2.125 -1.625 2.625 -1.53125 2.625 -1.078125 C 2.625 -0.5 1.90625 -0.5 1.796875 -0.5 C 1.265625 -0.5 0.765625 -0.671875 0.375 -0.953125 L 0.265625 -0.296875 C 0.796875 -0.015625 1.34375 0.09375 1.796875 0.09375 C 2.375 0.09375 3.296875 -0.09375 3.296875 -1.15625 C 3.296875 -1.46875 3.171875 -1.78125 2.859375 -2.046875 C 2.5625 -2.296875 2.296875 -2.359375 1.734375 -2.46875 C 1.421875 -2.53125 0.96875 -2.609375 0.96875 -3.03125 C 0.96875 -3.546875 1.609375 -3.546875 1.734375 -3.546875 C 2.390625 -3.546875 2.78125 -3.34375 3.03125 -3.203125 Z M 3.15625 -3.828125 "/>
</g>
<g id="glyph-0-13">
<path d="M 5.328125 -1.0625 C 4.8125 -0.65625 4.3125 -0.515625 3.5625 -0.515625 C 2.234375 -0.515625 1.453125 -1.875 1.453125 -3.078125 C 1.453125 -4.40625 2.28125 -5.6875 3.5625 -5.6875 C 4.1875 -5.6875 4.734375 -5.515625 5.15625 -5.203125 L 5.296875 -5.984375 C 4.828125 -6.1875 4.25 -6.296875 3.640625 -6.296875 C 1.875 -6.296875 0.59375 -4.859375 0.59375 -3.09375 C 0.59375 -1.390625 1.84375 0.09375 3.625 0.09375 C 4.453125 0.09375 4.796875 -0.03125 5.390625 -0.40625 Z M 5.328125 -1.0625 "/>
</g>
<g id="glyph-0-14">
<path d="M 4 -2.65625 C 4 -3.3125 3.828125 -4.0625 2.75 -4.0625 C 2.234375 -4.0625 1.75 -3.8125 1.4375 -3.421875 L 1.4375 -6.1875 L 0.71875 -6.1875 L 0.71875 0 L 1.46875 0 L 1.46875 -2.171875 C 1.46875 -2.765625 1.6875 -3.484375 2.375 -3.484375 C 3.265625 -3.484375 3.265625 -2.84375 3.265625 -2.59375 L 3.265625 0 L 4 0 Z M 4 -2.65625 "/>
</g>
<g id="glyph-0-15">
<path d="M 3.75 -0.96875 C 3.328125 -0.671875 2.859375 -0.515625 2.3125 -0.515625 C 1.5625 -0.515625 1.0625 -1.140625 1.0625 -1.984375 C 1.0625 -2.671875 1.40625 -3.5 2.359375 -3.5 C 2.921875 -3.5 3.203125 -3.40625 3.65625 -3.09375 L 3.765625 -3.71875 C 3.265625 -4 2.984375 -4.109375 2.34375 -4.109375 C 1.078125 -4.109375 0.328125 -3.046875 0.328125 -1.984375 C 0.328125 -0.875 1.15625 0.09375 2.3125 0.09375 C 2.9375 0.09375 3.40625 -0.09375 3.8125 -0.328125 Z M 3.75 -0.96875 "/>
</g>
<g id="glyph-0-16">
<path d="M 2.578125 -2.421875 L 4.109375 -3.96875 L 3.265625 -3.96875 L 1.4375 -2.125 L 1.4375 -6.1875 L 0.765625 -6.1875 L 0.765625 0 L 1.40625 0 L 1.40625 -1.265625 L 2.125 -1.984375 L 3.546875 0 L 4.3125 0 Z M 2.578125 -2.421875 "/>
</g>
<g id="glyph-0-17">
<path d="M 3.671875 -2.578125 C 3.671875 -3.46875 3.03125 -4.109375 2.140625 -4.109375 C 1.5625 -4.109375 1.140625 -3.96875 0.703125 -3.71875 L 0.765625 -3.09375 C 1.203125 -3.421875 1.640625 -3.546875 2.125 -3.546875 C 2.625 -3.546875 2.9375 -3.15625 2.9375 -2.5625 L 2.9375 -2.1875 C 1.40625 -2.15625 0.390625 -1.75 0.390625 -1.03125 C 0.390625 -0.609375 0.671875 0.09375 1.453125 0.09375 C 1.625 0.09375 2.40625 0.078125 2.96875 -0.34375 L 2.96875 0 L 3.671875 0 Z M 2.9375 -1.25 C 2.9375 -1.0625 2.9375 -0.84375 2.609375 -0.65625 C 2.390625 -0.515625 2.09375 -0.484375 1.921875 -0.484375 C 1.46875 -0.484375 1.078125 -0.703125 1.078125 -1.046875 C 1.078125 -1.6875 2.8125 -1.71875 2.9375 -1.71875 Z M 2.9375 -1.25 "/>
</g>
<g id="glyph-0-18">
<path d="M 1.453125 -6.1875 L 0.734375 -6.1875 L 0.734375 0 L 1.484375 0 L 1.484375 -0.421875 C 1.59375 -0.296875 2.046875 0.09375 2.71875 0.09375 C 3.640625 0.09375 4.40625 -0.796875 4.40625 -1.984375 C 4.40625 -3.0625 3.8125 -4.0625 2.9375 -4.0625 C 2.703125 -4.0625 2.0625 -4.015625 1.453125 -3.546875 Z M 1.484375 -2.984375 C 1.609375 -3.171875 1.9375 -3.484375 2.4375 -3.484375 C 2.984375 -3.484375 3.671875 -3.109375 3.671875 -1.984375 C 3.671875 -0.84375 2.90625 -0.484375 2.359375 -0.484375 C 1.78125 -0.484375 1.53125 -0.953125 1.484375 -1.03125 Z M 1.484375 -2.984375 "/>
</g>
<g id="glyph-0-19">
<path d="M 3.171875 -2.546875 C 4.4375 -2.546875 5.34375 -3.40625 5.34375 -4.375 C 5.34375 -5.328125 4.4375 -6.1875 3.171875 -6.1875 L 0.859375 -6.1875 L 0.859375 0 L 1.71875 0 L 1.71875 -2.546875 Z M 2.96875 -5.671875 C 3.984375 -5.671875 4.5625 -5.09375 4.5625 -4.375 C 4.5625 -3.671875 4 -3.09375 2.96875 -3.09375 L 1.6875 -3.09375 L 1.6875 -5.671875 Z M 2.96875 -5.671875 "/>
</g>
<g id="glyph-0-20">
<path d="M 4 -2.65625 C 4 -3.3125 3.828125 -4.0625 2.75 -4.0625 C 2.046875 -4.0625 1.609375 -3.65625 1.40625 -3.375 L 1.40625 -4.015625 L 0.71875 -4.015625 L 0.71875 0 L 1.46875 0 L 1.46875 -2.171875 C 1.46875 -2.765625 1.6875 -3.484375 2.375 -3.484375 C 3.265625 -3.484375 3.265625 -2.84375 3.265625 -2.59375 L 3.265625 0 L 4 0 Z M 4 -2.65625 "/>
</g>
<g id="glyph-0-21">
<path d="M 3.5625 -5.53125 C 4.171875 -5.53125 4.78125 -5.515625 5.390625 -5.515625 L 5.921875 -5.515625 L 5.921875 -6.140625 L 0.328125 -6.140625 L 0.328125 -5.515625 L 0.875 -5.515625 C 1.484375 -5.515625 2.09375 -5.53125 2.703125 -5.53125 L 2.703125 0 L 3.5625 0 Z M 3.5625 -5.53125 "/>
</g>
<g id="glyph-0-22">
<path d="M 6.125 -3.96875 L 5.4375 -3.96875 C 5.234375 -3.3125 4.5 -1.03125 4.4375 -0.5 C 4.375 -0.875 4.1875 -1.484375 4.046875 -1.984375 L 3.421875 -3.96875 L 2.765625 -3.96875 C 2.484375 -3.09375 1.84375 -1.09375 1.8125 -0.53125 L 1.796875 -0.53125 C 1.78125 -0.859375 1.546875 -1.671875 1.375 -2.21875 L 0.84375 -3.96875 L 0.125 -3.96875 L 1.390625 0 L 2.125 0 C 2.28125 -0.484375 2.609375 -1.515625 2.65625 -1.71875 C 2.84375 -2.359375 3.0625 -3.0625 3.09375 -3.453125 C 3.109375 -3.28125 3.1875 -2.9375 3.21875 -2.84375 C 3.3125 -2.453125 3.3125 -2.4375 3.375 -2.203125 L 4.0625 0 L 4.875 0 Z M 6.125 -3.96875 "/>
</g>
<g id="glyph-0-23">
<path d="M 3.984375 -6.1875 L 3.28125 -6.1875 L 3.28125 -3.5625 C 2.78125 -3.984375 2.203125 -4.0625 1.921875 -4.0625 C 1.015625 -4.0625 0.328125 -3.125 0.328125 -1.984375 C 0.328125 -0.828125 1.015625 0.09375 1.875 0.09375 C 2.15625 0.09375 2.71875 0.03125 3.25 -0.46875 L 3.25 0 L 3.984375 0 Z M 3.25 -1.265625 C 3.25 -1.09375 3.25 -1.078125 3.15625 -0.953125 C 2.90625 -0.625 2.609375 -0.484375 2.28125 -0.484375 C 1.703125 -0.484375 1.0625 -0.90625 1.0625 -1.96875 C 1.0625 -3.109375 1.8125 -3.484375 2.375 -3.484375 C 2.796875 -3.484375 3.078125 -3.25 3.25 -3.015625 Z M 3.25 -1.265625 "/>
</g>
<g id="glyph-0-24">
<path d="M 2.546875 -1.703125 L 2.546875 -2.25 L 0.09375 -2.25 L 0.09375 -1.703125 Z M 2.546875 -1.703125 "/>
</g>
<g id="glyph-0-25">
<path d="M 1.703125 -6.1875 L 0.84375 -6.1875 L 0.84375 0 L 1.703125 0 Z M 1.703125 -6.1875 "/>
</g>
<g id="glyph-0-26">
<path d="M 1.515625 -6.109375 L 0.65625 -6.109375 L 0.65625 -5.25 L 1.515625 -5.25 Z M 1.453125 -3.96875 L 0.734375 -3.96875 L 0.734375 0 L 1.453125 0 Z M 1.453125 -3.96875 "/>
</g>
<g id="glyph-0-27">
<path d="M 4.34375 -4.0625 C 4.171875 -4.0625 3.578125 -4.0625 2.921875 -3.78125 C 2.78125 -3.875 2.453125 -4.0625 2.03125 -4.0625 C 1.21875 -4.0625 0.5625 -3.390625 0.5625 -2.609375 C 0.5625 -2.375 0.609375 -2.046875 0.859375 -1.703125 C 0.703125 -1.484375 0.609375 -1.21875 0.609375 -0.96875 C 0.609375 -0.71875 0.703125 -0.46875 0.828125 -0.296875 C 0.359375 0 0.265625 0.390625 0.265625 0.640625 C 0.265625 1.28125 1.140625 1.84375 2.28125 1.84375 C 3.4375 1.84375 4.3125 1.296875 4.3125 0.625 C 4.3125 -0.609375 2.84375 -0.640625 2.4375 -0.640625 L 1.625 -0.640625 C 1.5 -0.640625 1.109375 -0.640625 1.109375 -1.09375 C 1.109375 -1.28125 1.140625 -1.328125 1.1875 -1.40625 C 1.421875 -1.234375 1.734375 -1.140625 2.03125 -1.140625 C 2.859375 -1.140625 3.5 -1.8125 3.5 -2.59375 C 3.5 -2.90625 3.421875 -3.15625 3.28125 -3.390625 C 3.234375 -3.4375 3.234375 -3.4375 3.234375 -3.453125 C 3.234375 -3.5 3.671875 -3.5 3.796875 -3.5 C 3.859375 -3.5 4.1875 -3.5 4.453125 -3.46875 Z M 2.03125 -1.671875 C 1.625 -1.671875 1.21875 -1.9375 1.21875 -2.59375 C 1.21875 -3.3125 1.671875 -3.53125 2.03125 -3.53125 C 2.4375 -3.53125 2.84375 -3.265625 2.84375 -2.609375 C 2.84375 -1.875 2.390625 -1.671875 2.03125 -1.671875 Z M 2.4375 0.046875 C 2.625 0.046875 3.65625 0.046875 3.65625 0.640625 C 3.65625 1.03125 3 1.296875 2.296875 1.296875 C 1.59375 1.296875 0.921875 1.046875 0.921875 0.625 C 0.921875 0.609375 0.921875 0.046875 1.609375 0.046875 Z M 2.4375 0.046875 "/>
</g>
</g>
<clipPath id="clip-0">
<path clip-rule="nonzero" d="M 0.015625 0 L 152.300781 0 L 152.300781 39 L 0.015625 39 Z M 0.015625 0 "/>
</clipPath>
<clipPath id="clip-1">
<path clip-rule="nonzero" d="M 0.015625 39 L 152.300781 39 L 152.300781 88 L 0.015625 88 Z M 0.015625 39 "/>
</clipPath>
<clipPath id="clip-2">
<path clip-rule="nonzero" d="M 0.015625 88 L 152.300781 88 L 152.300781 127.535156 L 0.015625 127.535156 Z M 0.015625 88 "/>
</clipPath>
</defs>
<g clip-path="url(#clip-0)">
<path fill="none" stroke-width="0.79701" stroke-linecap="butt" stroke-linejoin="miter" stroke="rgb(0%, 0%, 0%)" stroke-opacity="1" stroke-miterlimit="10" d="M 72.194285 12.75448 L -72.193678 12.75448 C -73.293687 12.75448 -74.189408 11.862688 -74.189408 10.762679 L -74.189408 -10.76214 C -74.189408 -11.862149 -73.293687 -12.75787 -72.193678 -12.75787 L 72.194285 -12.75787 C 73.294294 -12.75787 74.186087 -11.862149 74.186087 -10.76214 L 74.186087 10.762679 C 74.186087 11.862688 73.294294 12.75448 72.194285 12.75448 Z M 72.194285 12.75448 " transform="matrix(0.99431, 0, 0, -0.99431, 76.157901, 15.060815)"/>
</g>
<g fill="rgb(0%, 0%, 0%)" fill-opacity="1">
<use xlink:href="#glyph-0-0" x="40.363733" y="17.290058"/>
</g>
<g fill="rgb(0%, 0%, 0%)" fill-opacity="1">
<use xlink:href="#glyph-0-1" x="48.003323" y="17.290058"/>
</g>
<g fill="rgb(0%, 0%, 0%)" fill-opacity="1">
<use xlink:href="#glyph-0-2" x="56.412312" y="17.290058"/>
<use xlink:href="#glyph-0-3" x="60.484858" y="17.290058"/>
<use xlink:href="#glyph-0-3" x="62.672693" y="17.290058"/>
<use xlink:href="#glyph-0-4" x="64.860527" y="17.290058"/>
</g>
<g fill="rgb(0%, 0%, 0%)" fill-opacity="1">
<use xlink:href="#glyph-0-5" x="70.463845" y="17.290058"/>
</g>
<g fill="rgb(0%, 0%, 0%)" fill-opacity="1">
<use xlink:href="#glyph-0-6" x="75.036544" y="17.290058"/>
</g>
<g fill="rgb(0%, 0%, 0%)" fill-opacity="1">
<use xlink:href="#glyph-0-7" x="82.676135" y="17.290058"/>
<use xlink:href="#glyph-0-2" x="88.612888" y="17.290058"/>
<use xlink:href="#glyph-0-8" x="92.685434" y="17.290058"/>
</g>
<g fill="rgb(0%, 0%, 0%)" fill-opacity="1">
<use xlink:href="#glyph-0-9" x="97.677157" y="17.290058"/>
</g>
<g fill="rgb(0%, 0%, 0%)" fill-opacity="1">
<use xlink:href="#glyph-0-10" x="102.000225" y="17.290058"/>
<use xlink:href="#glyph-0-11" x="105.130416" y="17.290058"/>
<use xlink:href="#glyph-0-12" x="108.438914" y="17.290058"/>
</g>
<g clip-path="url(#clip-1)">
<path fill="none" stroke-width="0.79701" stroke-linecap="butt" stroke-linejoin="miter" stroke="rgb(0%, 0%, 0%)" stroke-opacity="1" stroke-miterlimit="10" d="M 72.194285 -36.231276 L -72.193678 -36.231276 C -73.293687 -36.231276 -74.189408 -37.123069 -74.189408 -38.223078 L -74.189408 -59.751825 C -74.189408 -60.851834 -73.293687 -61.743627 -72.193678 -61.743627 L 72.194285 -61.743627 C 73.294294 -61.743627 74.186087 -60.851834 74.186087 -59.751825 L 74.186087 -38.223078 C 74.186087 -37.123069 73.294294 -36.231276 72.194285 -36.231276 Z M 72.194285 -36.231276 " transform="matrix(0.99431, 0, 0, -0.99431, 76.157901, 15.060815)"/>
</g>
<g fill="rgb(0%, 0%, 0%)" fill-opacity="1">
<use xlink:href="#glyph-0-13" x="39.418144" y="66.863375"/>
<use xlink:href="#glyph-0-14" x="45.271984" y="66.863375"/>
<use xlink:href="#glyph-0-2" x="50.00516" y="66.863375"/>
<use xlink:href="#glyph-0-15" x="54.077706" y="66.863375"/>
<use xlink:href="#glyph-0-16" x="58.150253" y="66.863375"/>
</g>
<g fill="rgb(0%, 0%, 0%)" fill-opacity="1">
<use xlink:href="#glyph-0-17" x="62.369903" y="66.863375"/>
<use xlink:href="#glyph-0-18" x="66.772318" y="66.863375"/>
<use xlink:href="#glyph-0-3" x="71.505495" y="66.863375"/>
<use xlink:href="#glyph-0-2" x="73.693329" y="66.863375"/>
</g>
<g fill="rgb(0%, 0%, 0%)" fill-opacity="1">
<use xlink:href="#glyph-0-19" x="80.823852" y="66.863375"/>
</g>
<g fill="rgb(0%, 0%, 0%)" fill-opacity="1">
<use xlink:href="#glyph-0-17" x="86.426278" y="66.863375"/>
<use xlink:href="#glyph-0-11" x="90.828693" y="66.863375"/>
<use xlink:href="#glyph-0-11" x="94.137192" y="66.863375"/>
<use xlink:href="#glyph-0-2" x="97.44569" y="66.863375"/>
<use xlink:href="#glyph-0-10" x="101.518236" y="66.863375"/>
<use xlink:href="#glyph-0-20" x="104.648427" y="66.863375"/>
<use xlink:href="#glyph-0-12" x="109.381603" y="66.863375"/>
</g>
<g clip-path="url(#clip-2)">
<path fill="none" stroke-width="0.79701" stroke-linecap="butt" stroke-linejoin="miter" stroke="rgb(0%, 0%, 0%)" stroke-opacity="1" stroke-miterlimit="10" d="M 72.194285 -85.217032 L -72.193678 -85.217032 C -73.293687 -85.217032 -74.189408 -86.108825 -74.189408 -87.208834 L -74.189408 -108.737581 C -74.189408 -109.83759 -73.293687 -110.729383 -72.193678 -110.729383 L 72.194285 -110.729383 C 73.294294 -110.729383 74.186087 -109.83759 74.186087 -108.737581 L 74.186087 -87.208834 C 74.186087 -86.108825 73.294294 -85.217032 72.194285 -85.217032 Z M 72.194285 -85.217032 " transform="matrix(0.99431, 0, 0, -0.99431, 76.157901, 15.060815)"/>
</g>
<g fill="rgb(0%, 0%, 0%)" fill-opacity="1">
<use xlink:href="#glyph-0-21" x="17.547299" y="114.704605"/>
</g>
<g fill="rgb(0%, 0%, 0%)" fill-opacity="1">
<use xlink:href="#glyph-0-9" x="23.040958" y="114.704605"/>
</g>
<g fill="rgb(0%, 0%, 0%)" fill-opacity="1">
<use xlink:href="#glyph-0-22" x="27.372942" y="114.704605"/>
</g>
<g fill="rgb(0%, 0%, 0%)" fill-opacity="1">
<use xlink:href="#glyph-0-17" x="33.374777" y="114.704605"/>
</g>
<g fill="rgb(0%, 0%, 0%)" fill-opacity="1">
<use xlink:href="#glyph-0-10" x="37.527562" y="114.704605"/>
<use xlink:href="#glyph-0-23" x="40.657752" y="114.704605"/>
</g>
<g fill="rgb(0%, 0%, 0%)" fill-opacity="1">
<use xlink:href="#glyph-0-13" x="48.439989" y="114.704605"/>
<use xlink:href="#glyph-0-10" x="54.293829" y="114.704605"/>
<use xlink:href="#glyph-0-9" x="57.424019" y="114.704605"/>
<use xlink:href="#glyph-0-12" x="62.005634" y="114.704605"/>
<use xlink:href="#glyph-0-12" x="65.518295" y="114.704605"/>
<use xlink:href="#glyph-0-24" x="69.030955" y="114.704605"/>
<use xlink:href="#glyph-0-1" x="72.085365" y="114.704605"/>
</g>
<g fill="rgb(0%, 0%, 0%)" fill-opacity="1">
<use xlink:href="#glyph-0-2" x="80.503268" y="114.704605"/>
<use xlink:href="#glyph-0-3" x="84.575815" y="114.704605"/>
</g>
<g fill="rgb(0%, 0%, 0%)" fill-opacity="1">
<use xlink:href="#glyph-0-3" x="86.754734" y="114.704605"/>
</g>
<g fill="rgb(0%, 0%, 0%)" fill-opacity="1">
<use xlink:href="#glyph-0-25" x="92.000545" y="114.704605"/>
<use xlink:href="#glyph-0-20" x="94.55926" y="114.704605"/>
<use xlink:href="#glyph-0-11" x="99.292436" y="114.704605"/>
<use xlink:href="#glyph-0-2" x="102.600934" y="114.704605"/>
<use xlink:href="#glyph-0-3" x="106.67348" y="114.704605"/>
<use xlink:href="#glyph-0-3" x="108.861315" y="114.704605"/>
<use xlink:href="#glyph-0-26" x="111.04915" y="114.704605"/>
<use xlink:href="#glyph-0-27" x="113.236985" y="114.704605"/>
<use xlink:href="#glyph-0-2" x="117.818599" y="114.704605"/>
<use xlink:href="#glyph-0-20" x="121.891146" y="114.704605"/>
<use xlink:href="#glyph-0-15" x="126.624322" y="114.704605"/>
<use xlink:href="#glyph-0-2" x="130.696868" y="114.704605"/>
</g>
<path fill="none" stroke-width="0.79701" stroke-linecap="butt" stroke-linejoin="miter" stroke="rgb(0%, 0%, 0%)" stroke-opacity="1" stroke-miterlimit="10" d="M -0.0016606 -13.154659 L -0.0016606 -31.949098 " transform="matrix(0.99431, 0, 0, -0.99431, 76.157901, 15.060815)"/>
<path fill-rule="nonzero" fill="rgb(0%, 0%, 0%)" fill-opacity="1" stroke-width="0.79701" stroke-linecap="butt" stroke-linejoin="miter" stroke="rgb(0%, 0%, 0%)" stroke-opacity="1" stroke-miterlimit="10" d="M 5.099472 -0.0016606 L 1.288727 1.444065 L 2.553737 -0.0016606 L 1.288727 -1.443458 Z M 5.099472 -0.0016606 " transform="matrix(0, 0.99431, 0.99431, 0, 76.157901, 44.488137)"/>
<path fill="none" stroke-width="0.79701" stroke-linecap="butt" stroke-linejoin="miter" stroke="rgb(0%, 0%, 0%)" stroke-opacity="1" stroke-miterlimit="10" d="M -0.0016606 -62.140416 L -0.0016606 -80.938783 " transform="matrix(0.99431, 0, 0, -0.99431, 76.157901, 15.060815)"/>
<path fill-rule="nonzero" fill="rgb(0%, 0%, 0%)" fill-opacity="1" stroke-width="0.79701" stroke-linecap="butt" stroke-linejoin="miter" stroke="rgb(0%, 0%, 0%)" stroke-opacity="1" stroke-miterlimit="10" d="M 5.102587 -0.0016606 L 1.287913 1.444065 L 2.552923 -0.0016606 L 1.287913 -1.443458 Z M 5.102587 -0.0016606 " transform="matrix(0, 0.99431, 0.99431, 0, 76.157901, 93.195978)"/>
</svg>
