<?xml version="1.0" encoding="UTF-8"?>
<svg xmlns="http://www.w3.org/2000/svg" xmlns:xlink="http://www.w3.org/1999/xlink" width="102.132pt" height="79.28pt" viewBox="0 0 102.132 79.28">
<defs>
<g>
<g id="glyph-0-0">
<path d="M 3.859375 -2.890625 C 4.765625 -3.140625 5.40625 -3.78125 5.40625 -4.5 C 5.40625 -5.421875 4.375 -6.171875 3.109375 -6.171875 L 0.859375 -6.171875 L 0.859375 0 L 1.6875 0 L 1.6875 -2.796875 L 3.109375 -2.796875 L 4.796875 0 L 5.65625 0 Z M 1.6875 -3.375 L 1.6875 -5.640625 L 3 -5.640625 C 4.03125 -5.640625 4.625 -5.140625 4.625 -4.5 C 4.625 -3.921875 4.09375 -3.375 3 -3.375 Z M 1.6875 -3.375 "/>
</g>
<g id="glyph-0-1">
<path d="M 3.65625 -2.5625 C 3.65625 -3.453125 3.015625 -4.09375 2.140625 -4.09375 C 1.5625 -4.09375 1.125 -3.953125 0.703125 -3.703125 L 0.75 -3.078125 C 1.203125 -3.40625 1.640625 -3.53125 2.125 -3.53125 C 2.625 -3.53125 2.921875 -3.140625 2.921875 -2.5625 L 2.921875 -2.1875 C 1.390625 -2.15625 0.390625 -1.75 0.390625 -1.03125 C 0.390625 -0.609375 0.671875 0.09375 1.4375 0.09375 C 1.625 0.09375 2.390625 0.078125 2.953125 -0.34375 L 2.953125 0 L 3.65625 0 Z M 2.921875 -1.25 C 2.921875 -1.0625 2.921875 -0.828125 2.609375 -0.65625 C 2.375 -0.515625 2.09375 -0.484375 1.90625 -0.484375 C 1.453125 -0.484375 1.078125 -0.6875 1.078125 -1.046875 C 1.078125 -1.6875 2.8125 -1.703125 2.921875 -1.703125 Z M 2.921875 -1.25 "/>
</g>
<g id="glyph-0-2">
<path d="M 6.109375 -3.953125 L 5.421875 -3.953125 C 5.21875 -3.3125 4.484375 -1.03125 4.421875 -0.5 C 4.359375 -0.875 4.171875 -1.46875 4.03125 -1.96875 L 3.40625 -3.953125 L 2.75 -3.953125 C 2.46875 -3.078125 1.84375 -1.078125 1.8125 -0.53125 L 1.796875 -0.53125 C 1.765625 -0.859375 1.53125 -1.65625 1.375 -2.21875 L 0.828125 -3.953125 L 0.125 -3.953125 L 1.375 0 L 2.109375 0 C 2.265625 -0.484375 2.59375 -1.515625 2.65625 -1.71875 C 2.84375 -2.34375 3.046875 -3.0625 3.078125 -3.4375 C 3.109375 -3.265625 3.1875 -2.921875 3.203125 -2.84375 C 3.296875 -2.4375 3.296875 -2.421875 3.375 -2.203125 L 4.046875 0 L 4.859375 0 Z M 6.109375 -3.953125 "/>
</g>
<g id="glyph-0-3">
<path d="M 3.546875 -5.515625 C 4.15625 -5.515625 4.765625 -5.5 5.375 -5.5 L 5.90625 -5.5 L 5.90625 -6.109375 L 0.328125 -6.109375 L 0.328125 -5.5 L 0.875 -5.5 C 1.46875 -5.5 2.09375 -5.515625 2.6875 -5.515625 L 2.6875 0 L 3.546875 0 Z M 3.546875 -5.515625 "/>
</g>
<g id="glyph-0-4">
<path d="M 3.796875 -1.953125 C 3.796875 -2.21875 3.78125 -2.890625 3.4375 -3.4375 C 3.0625 -3.984375 2.5 -4.09375 2.15625 -4.09375 C 1.125 -4.09375 0.3125 -3.140625 0.3125 -2.015625 C 0.3125 -0.828125 1.1875 0.09375 2.296875 0.09375 C 2.71875 0.09375 3.234375 -0.015625 3.75 -0.34375 L 3.703125 -0.953125 C 3.140625 -0.546875 2.609375 -0.484375 2.296875 -0.484375 C 1.5625 -0.484375 1 -1.125 0.96875 -1.953125 Z M 1.015625 -2.46875 C 1.171875 -3.046875 1.59375 -3.515625 2.15625 -3.515625 C 2.484375 -3.515625 3.09375 -3.375 3.265625 -2.46875 Z M 1.015625 -2.46875 "/>
</g>
<g id="glyph-0-5">
<path d="M 2.375 -2.03125 L 4.046875 -3.953125 L 3.28125 -3.953125 L 2.078125 -2.5 L 0.828125 -3.953125 L 0.046875 -3.953125 L 1.765625 -2.03125 L 0 0 L 0.78125 0 L 2.078125 -1.65625 L 3.421875 0 L 4.203125 0 Z M 2.375 -2.03125 "/>
</g>
<g id="glyph-0-6">
<path d="M 1.609375 -3.390625 L 2.890625 -3.390625 L 2.890625 -3.953125 L 1.609375 -3.953125 L 1.609375 -5.078125 L 0.953125 -5.078125 L 0.953125 -3.953125 L 0.171875 -3.953125 L 0.171875 -3.390625 L 0.921875 -3.390625 L 0.921875 -1.125 C 0.921875 -0.59375 1.046875 0.09375 1.6875 0.09375 C 2.078125 0.09375 2.546875 0.015625 3.046875 -0.234375 L 2.890625 -0.796875 C 2.65625 -0.609375 2.34375 -0.5 2.078125 -0.5 C 1.71875 -0.5 1.609375 -0.8125 1.609375 -1.28125 Z M 1.609375 -3.390625 "/>
</g>
<g id="glyph-0-7">
<path d="M 4.71875 -2.90625 L 4.71875 -3.484375 L 1.703125 -3.484375 L 1.703125 -5.53125 L 2.03125 -5.53125 C 2.75 -5.53125 3.484375 -5.515625 4.203125 -5.515625 L 4.96875 -5.515625 L 4.96875 -6.140625 L 0.84375 -6.140625 L 0.84375 0 L 5.09375 0 L 5.09375 -0.671875 L 4.203125 -0.671875 C 3.375 -0.671875 2.53125 -0.65625 1.703125 -0.65625 L 1.703125 -2.90625 Z M 4.71875 -2.90625 "/>
</g>
<g id="glyph-0-8">
<path d="M 1.46875 -0.40625 C 1.8125 -0.09375 2.25 0.09375 2.71875 0.09375 C 3.609375 0.09375 4.390625 -0.78125 4.390625 -1.984375 C 4.390625 -3.046875 3.828125 -4.046875 2.96875 -4.046875 C 2.71875 -4.046875 2.0625 -4 1.453125 -3.515625 L 1.453125 -3.953125 L 0.734375 -3.953125 L 0.734375 1.71875 L 1.46875 1.71875 Z M 1.46875 -2.953125 C 1.59375 -3.109375 1.921875 -3.4375 2.421875 -3.4375 C 3.09375 -3.4375 3.65625 -2.8125 3.65625 -1.96875 C 3.65625 -1.125 3.03125 -0.484375 2.34375 -0.484375 C 2.046875 -0.484375 1.734375 -0.59375 1.46875 -1.03125 Z M 1.46875 -2.953125 "/>
</g>
<g id="glyph-0-9">
<path d="M 3.984375 -2.640625 C 3.984375 -3.296875 3.8125 -4.046875 2.734375 -4.046875 C 2.03125 -4.046875 1.609375 -3.640625 1.40625 -3.375 L 1.40625 -4 L 0.71875 -4 L 0.71875 0 L 1.453125 0 L 1.453125 -2.171875 C 1.453125 -2.75 1.6875 -3.46875 2.359375 -3.46875 C 3.25 -3.46875 3.25 -2.84375 3.25 -2.578125 L 3.25 0 L 3.984375 0 Z M 3.984375 -2.640625 "/>
</g>
<g id="glyph-0-10">
<path d="M 3.96875 -6.171875 L 3.265625 -6.171875 L 3.265625 -3.5625 C 2.765625 -3.96875 2.203125 -4.046875 1.90625 -4.046875 C 1.015625 -4.046875 0.3125 -3.109375 0.3125 -1.96875 C 0.3125 -0.828125 1 0.09375 1.875 0.09375 C 2.140625 0.09375 2.703125 0.03125 3.234375 -0.46875 L 3.234375 0 L 3.96875 0 Z M 3.234375 -1.25 C 3.234375 -1.078125 3.234375 -1.0625 3.140625 -0.9375 C 2.890625 -0.625 2.59375 -0.484375 2.28125 -0.484375 C 1.703125 -0.484375 1.0625 -0.890625 1.0625 -1.96875 C 1.0625 -3.109375 1.8125 -3.46875 2.375 -3.46875 C 2.78125 -3.46875 3.0625 -3.234375 3.234375 -3 Z M 3.234375 -1.25 "/>
</g>
</g>
<clipPath id="clip-0">
<path clip-rule="nonzero" d="M 0.03125 0 L 101.242188 0 L 101.242188 39 L 0.03125 39 Z M 0.03125 0 "/>
</clipPath>
<clipPath id="clip-1">
<path clip-rule="nonzero" d="M 0.03125 39 L 101.242188 39 L 101.242188 78.566406 L 0.03125 78.566406 Z M 0.03125 39 "/>
</clipPath>
</defs>
<g clip-path="url(#clip-0)">
<path fill="none" stroke-width="0.79701" stroke-linecap="butt" stroke-linejoin="miter" stroke="rgb(0%, 0%, 0%)" stroke-opacity="1" stroke-miterlimit="10" d="M 46.682676 12.754373 L -46.681035 12.754373 C -47.784718 12.754373 -48.675548 11.863543 -48.675548 10.763801 L -48.675548 -10.761962 C -48.675548 -11.865645 -47.784718 -12.756475 -46.681035 -12.756475 L 46.682676 -12.756475 C 47.782417 -12.756475 48.677189 -11.865645 48.677189 -10.761962 L 48.677189 10.763801 C 48.677189 11.863543 47.782417 12.754373 46.682676 12.754373 Z M 46.682676 12.754373 " transform="matrix(0.991, 0, 0, -0.991, 50.635906, 15.010677)"/>
</g>
<g fill="rgb(0%, 0%, 0%)" fill-opacity="1">
<use xlink:href="#glyph-0-0" x="32.446101" y="18.09566"/>
<use xlink:href="#glyph-0-1" x="38.36309" y="18.09566"/>
</g>
<g fill="rgb(0%, 0%, 0%)" fill-opacity="1">
<use xlink:href="#glyph-0-2" x="42.50205" y="18.09566"/>
</g>
<g fill="rgb(0%, 0%, 0%)" fill-opacity="1">
<use xlink:href="#glyph-0-3" x="51.780501" y="18.09566"/>
</g>
<g fill="rgb(0%, 0%, 0%)" fill-opacity="1">
<use xlink:href="#glyph-0-4" x="57.255871" y="18.09566"/>
<use xlink:href="#glyph-0-5" x="61.31486" y="18.09566"/>
<use xlink:href="#glyph-0-6" x="65.524905" y="18.09566"/>
</g>
<g clip-path="url(#clip-1)">
<path fill="none" stroke-width="0.79701" stroke-linecap="butt" stroke-linejoin="miter" stroke="rgb(0%, 0%, 0%)" stroke-opacity="1" stroke-miterlimit="10" d="M 46.682676 -36.229451 L -46.681035 -36.229451 C -47.784718 -36.229451 -48.675548 -37.124222 -48.675548 -38.223964 L -48.675548 -59.749727 C -48.675548 -60.849468 -47.784718 -61.74424 -46.681035 -61.74424 L 46.682676 -61.74424 C 47.782417 -61.74424 48.677189 -60.849468 48.677189 -59.749727 L 48.677189 -38.223964 C 48.677189 -37.124222 47.782417 -36.229451 46.682676 -36.229451 Z M 46.682676 -36.229451 " transform="matrix(0.991, 0, 0, -0.991, 50.635906, 15.010677)"/>
</g>
<g fill="rgb(0%, 0%, 0%)" fill-opacity="1">
<use xlink:href="#glyph-0-7" x="22.087178" y="65.777625"/>
<use xlink:href="#glyph-0-5" x="27.572322" y="65.777625"/>
<use xlink:href="#glyph-0-8" x="31.782368" y="65.777625"/>
<use xlink:href="#glyph-0-1" x="36.499787" y="65.777625"/>
<use xlink:href="#glyph-0-9" x="40.887547" y="65.777625"/>
<use xlink:href="#glyph-0-10" x="45.604967" y="65.777625"/>
<use xlink:href="#glyph-0-4" x="50.322386" y="65.777625"/>
<use xlink:href="#glyph-0-10" x="54.381375" y="65.777625"/>
</g>
<g fill="rgb(0%, 0%, 0%)" fill-opacity="1">
<use xlink:href="#glyph-0-3" x="62.137704" y="65.777625"/>
</g>
<g fill="rgb(0%, 0%, 0%)" fill-opacity="1">
<use xlink:href="#glyph-0-4" x="67.62196" y="65.777625"/>
<use xlink:href="#glyph-0-5" x="71.680949" y="65.777625"/>
<use xlink:href="#glyph-0-6" x="75.890995" y="65.777625"/>
</g>
<path fill="none" stroke-width="0.79701" stroke-linecap="butt" stroke-linejoin="miter" stroke="rgb(0%, 0%, 0%)" stroke-opacity="1" stroke-miterlimit="10" d="M 0.000820131 -13.154589 L 0.000820131 -31.948737 " transform="matrix(0.991, 0, 0, -0.991, 50.635906, 15.010677)"/>
<path fill-rule="nonzero" fill="rgb(0%, 0%, 0%)" fill-opacity="1" stroke-width="0.79701" stroke-linecap="butt" stroke-linejoin="miter" stroke="rgb(0%, 0%, 0%)" stroke-opacity="1" stroke-miterlimit="10" d="M 5.100399 0.000820131 L 1.288751 1.443492 L 2.554045 0.000820131 L 1.288751 -1.441851 Z M 5.100399 0.000820131 " transform="matrix(0, 0.991, 0.991, 0, 50.635906, 44.340036)"/>
</svg>
